<svg width="640" height="480" viewBox="0 0 640 480" fill="none" xmlns="http://www.w3.org/2000/svg">
  <defs>
    <linearGradient id="hoodieBody" x1="0" y1="0" x2="1" y2="1">
      <stop stop-color="#ff006e" stop-opacity="0.8"/>
      <stop offset="0.5" stop-color="#ff9e00" stop-opacity="0.8"/>
      <stop offset="1" stop-color="#00f5d4" stop-opacity="0.8"/>
    </linearGradient>
    <radialGradient id="hoodieGlow" cx="50%" cy="20%" r="70%">
      <stop offset="0%" stop-color="#00f5d4" stop-opacity="0.35"/>
      <stop offset="100%" stop-color="#09090b" stop-opacity="0"/>
    </radialGradient>
  </defs>
  <rect width="640" height="480" fill="#0b0b0e"/>
  <rect width="640" height="480" fill="url(#hoodieGlow)"/>
  <g filter="url(#blurGlow)">
    <path d="M200 120C200 90 224 66 254 66H386C416 66 440 90 440 120L440 320C440 354 412 382 378 382H262C228 382 200 354 200 320V120Z" fill="url(#hoodieBody)" opacity="0.9"/>
  </g>
  <path d="M220 140C220 112 243 90 271 90H369C397 90 420 112 420 140V300C420 330 395 355 365 355H275C245 355 220 330 220 300V140Z" fill="#0f1016" stroke="#2f2f38" stroke-width="8"/>
  <path d="M260 120L240 90C260 80 280 74 300 72V98" stroke="#ff006e" stroke-width="8" stroke-linecap="round"/>
  <path d="M380 120L400 90C380 80 360 74 340 72V98" stroke="#00f5d4" stroke-width="8" stroke-linecap="round"/>
  <path d="M310 118C310 112 315 106 321 106H319C325 106 330 112 330 118V196C330 204 323 210 315 210H315C307 210 300 204 300 196V118Z" fill="url(#hoodieBody)" opacity="0.85"/>
  <path d="M260 210C260 202 266 196 274 196H366C374 196 380 202 380 210V260C380 274 368 286 354 286H286C272 286 260 274 260 260V210Z" fill="#111217" stroke="#2d2e35" stroke-width="6"/>
  <path d="M240 150C252 150 262 160 262 172C262 184 252 194 240 194C228 194 218 184 218 172C218 160 228 150 240 150Z" fill="#ff006e"/>
  <path d="M400 150C412 150 422 160 422 172C422 184 412 194 400 194C388 194 378 184 378 172C378 160 388 150 400 150Z" fill="#00f5d4"/>
  <filter id="blurGlow" x="150" y="40" width="340" height="380" color-interpolation-filters="sRGB">
    <feGaussianBlur stdDeviation="18" result="coloredBlur"/>
    <feMerge>
      <feMergeNode in="coloredBlur"/>
      <feMergeNode in="SourceGraphic"/>
    </feMerge>
  </filter>
</svg>
