<svg width="640" height="480" viewBox="0 0 640 480" fill="none" xmlns="http://www.w3.org/2000/svg">
  <defs>
    <linearGradient id="vinylRim" x1="0" y1="0" x2="1" y2="1">
      <stop stop-color="#00f5d4" stop-opacity="0.9"/>
      <stop offset="0.5" stop-color="#ff006e" stop-opacity="0.9"/>
      <stop offset="1" stop-color="#ff9e00" stop-opacity="0.9"/>
    </linearGradient>
    <radialGradient id="vinylGlow" cx="50%" cy="20%" r="70%">
      <stop offset="0%" stop-color="#00f5d4" stop-opacity="0.32"/>
      <stop offset="100%" stop-color="#0b0b0e" stop-opacity="0"/>
    </radialGradient>
  </defs>
  <rect width="640" height="480" fill="#0b0b0e"/>
  <rect width="640" height="480" fill="url(#vinylGlow)"/>

  <circle cx="320" cy="240" r="168" fill="#0f1016" stroke="#1f212a" stroke-width="10"/>
  <circle cx="320" cy="240" r="130" stroke="#1f212a" stroke-width="7" stroke-dasharray="4 10" opacity="0.7"/>
  <circle cx="320" cy="240" r="188" stroke="url(#vinylRim)" stroke-width="8" opacity="0.9"/>

  <circle cx="320" cy="240" r="64" fill="#ff006e" />
  <circle cx="320" cy="240" r="36" fill="#0b0b0e" stroke="#00f5d4" stroke-width="6"/>
  <circle cx="320" cy="240" r="10" fill="#00f5d4"/>

  <path d="M220 240C220 182 266 136 324 136H316C374 136 420 182 420 240C420 298 374 344 316 344H324C266 344 220 298 220 240Z" stroke="#ff9e00" stroke-width="8" stroke-linecap="round" stroke-dasharray="18 16"/>

  <path d="M420 160C440 170 454 188 458 210" stroke="#00f5d4" stroke-width="8" stroke-linecap="round" opacity="0.8"/>
  <path d="M420 320C440 310 454 292 458 270" stroke="#ff006e" stroke-width="8" stroke-linecap="round" opacity="0.8"/>

  <rect x="438" y="168" width="70" height="12" rx="6" fill="#00f5d4" transform="rotate(18 438 168)" opacity="0.8"/>
  <rect x="438" y="310" width="70" height="12" rx="6" fill="#ff9e00" transform="rotate(-18 438 310)" opacity="0.8"/>
</svg>
